<svg width="256" height="199" viewBox="0 0 256 199" fill="none" xmlns="http://www.w3.org/2000/svg">
<g clip-path="url(#clip0_65_84)">
<path d="M223.435 66.68H208.669V59.064C208.669 53.002 203.695 48.028 197.633 48.028C191.571 48.028 186.597 53.002 186.597 59.064V66.68H171.831V59.064C171.831 44.764 183.489 33.262 197.633 33.262C211.933 33.262 223.435 44.92 223.435 59.064V66.68Z" fill="#FFA400"/>
<path d="M229.496 66.68H165.77C162.972 66.68 160.796 68.856 160.796 71.654V118.749C160.796 121.547 162.972 123.723 165.77 123.723H229.496C232.294 123.723 234.47 121.547 234.47 118.749V71.654C234.315 68.856 232.139 66.68 229.496 66.68ZM200.742 97.61V103.983C200.742 105.693 199.342 107.248 197.478 107.248C195.768 107.248 194.213 105.848 194.213 103.983V97.611C192.193 96.523 190.949 94.347 190.949 91.86C190.949 88.285 193.903 85.332 197.478 85.332C201.052 85.332 204.006 88.285 204.006 91.86C204.161 94.347 202.762 96.523 200.742 97.61Z" fill="#003A70"/>
<path d="M159.241 59.686H143.854C142.659 59.6854 141.512 59.2103 140.667 58.365C139.822 57.5197 139.347 56.3734 139.346 55.178C139.347 53.9827 139.822 52.8366 140.667 51.9916C141.513 51.1465 142.659 50.6715 143.854 50.671H159.241C160.436 50.6715 161.583 51.1465 162.428 51.9916C163.273 52.8366 163.748 53.9827 163.749 55.178C163.749 56.3734 163.274 57.5197 162.428 58.365C161.583 59.2103 160.437 59.6854 159.241 59.686ZM170.122 35.438C169.189 35.438 168.102 35.128 167.324 34.35L155.2 24.403C153.335 22.848 153.024 20.051 154.579 18.03C156.133 16.165 158.931 15.854 160.951 17.408L173.075 27.356C174.94 28.91 175.251 31.708 173.697 33.729C172.609 34.817 171.365 35.438 170.122 35.438ZM197.633 24.869C196.438 24.8684 195.291 24.3933 194.446 23.548C193.601 22.7027 193.126 21.5564 193.125 20.361V4.81797C193.126 3.62271 193.601 2.47665 194.447 1.63157C195.292 0.786485 196.438 0.311504 197.633 0.310974C198.828 0.311769 199.974 0.786867 200.819 1.63192C201.664 2.47698 202.139 3.62289 202.14 4.81797V20.361C202.14 21.5562 201.665 22.7024 200.82 23.5477C199.975 24.3929 198.828 24.8682 197.633 24.869ZM224.989 35.438C223.745 35.438 222.347 34.817 221.569 33.728C220.015 31.863 220.326 28.91 222.191 27.356L234.315 17.408C236.18 15.854 239.133 16.165 240.687 18.03C242.242 19.895 241.931 22.848 240.066 24.403L227.942 34.35C227.009 35.127 226.077 35.438 224.989 35.438ZM251.257 59.686H235.714C234.519 59.6854 233.372 59.2103 232.527 58.365C231.682 57.5197 231.207 56.3734 231.206 55.178C231.207 53.9827 231.682 52.8366 232.527 51.9916C233.373 51.1465 234.519 50.6715 235.714 50.671H251.257C252.452 50.6718 253.598 51.1469 254.443 51.9919C255.288 52.837 255.763 53.9829 255.764 55.178C255.764 56.3732 255.289 57.5194 254.444 58.3647C253.599 59.2099 252.452 59.6852 251.257 59.686Z" fill="#FFA400"/>
<path d="M0.391137 123.101V72.897H12.5151V112.532H31.9441V123.102H0.390137L0.391137 123.101ZM72.0451 105.849V108.646H46.3991C46.5541 109.579 46.8651 110.512 47.3311 111.289C47.7981 112.066 48.4191 112.843 49.1961 113.309C49.9741 113.931 50.9061 114.397 51.8391 114.709C52.7938 115.015 53.7898 115.172 54.7921 115.174C56.6571 115.174 58.2121 114.864 59.4551 114.086C60.6888 113.468 61.7551 112.562 62.5631 111.444L70.6461 116.574C68.9361 119.06 66.7601 120.77 64.1181 122.169C61.4751 123.412 58.2111 124.189 54.6361 124.189C51.9941 124.189 49.5071 123.723 47.1761 122.946C44.8441 122.169 42.8241 120.926 40.9591 119.371C39.2491 117.817 37.8491 115.796 36.7621 113.465C35.6741 111.133 35.2081 108.491 35.2081 105.538C35.2081 102.585 35.6741 100.098 36.7621 97.766C37.6941 95.435 39.0931 93.414 40.8031 91.86C42.5131 90.306 44.5331 88.907 46.8651 88.13C49.1961 87.197 51.6831 86.73 54.3251 86.73C56.9681 86.73 59.2991 87.197 61.4751 87.974C63.6511 88.907 65.5171 90.15 67.0711 91.704C68.6251 93.414 69.8691 95.434 70.6461 97.766C71.5781 100.253 72.0451 102.896 72.0451 105.849ZM61.3201 101.497C61.3201 99.631 60.6981 98.077 59.6101 96.678C58.5221 95.279 56.6571 94.658 54.3261 94.658C53.2381 94.658 52.1501 94.813 51.2171 95.124C50.2841 95.434 49.5071 95.901 48.7301 96.523C47.9531 97.144 47.4871 97.922 47.0201 98.699C46.5541 99.476 46.3991 100.409 46.2431 101.341H61.3201V101.497ZM90.6971 96.523V110.045C90.6971 111.755 91.0071 112.998 91.6291 113.775C92.2511 114.553 93.3391 115.019 95.0491 115.019C95.6701 115.019 96.2921 115.019 96.9141 114.864C97.5351 114.708 98.1571 114.553 98.4681 114.397L98.6241 122.947C97.8461 123.257 96.7581 123.412 95.5141 123.723C94.2711 123.879 93.0281 124.034 91.7841 124.034C89.4541 124.034 87.4321 123.724 85.8781 123.101C84.3241 122.48 82.9251 121.703 81.9921 120.615C81.0601 119.527 80.2821 118.128 79.9721 116.573C79.6611 115.019 79.3501 113.309 79.3501 111.444V96.523H73.6001V87.819H79.1951V78.493H90.6971V87.819H98.9341V96.523H90.6971ZM109.659 71.965C106.239 71.965 103.442 74.452 103.442 77.715C103.442 81.135 105.773 83.311 109.192 83.311C109.504 83.311 109.815 83.311 109.97 83.156C109.348 85.643 107.017 87.508 104.685 87.819H104.219V93.259H104.841C107.639 92.948 110.281 91.704 112.301 89.839C114.944 87.352 116.343 83.622 116.343 79.269C116.343 75.073 113.545 71.965 109.659 71.965ZM136.549 98.233C135.594 97.2843 134.492 96.4967 133.285 95.901C132.028 95.2818 130.644 94.9625 129.243 94.968C128.155 94.968 127.223 95.124 126.29 95.59C125.358 96.056 124.891 96.678 124.891 97.766C124.891 98.699 125.358 99.476 126.446 99.942C127.534 100.409 129.088 100.875 131.419 101.342C132.819 101.652 134.062 101.962 135.461 102.585C136.86 103.206 137.948 103.828 139.036 104.605C140.154 105.413 141.061 106.48 141.678 107.714C142.3 108.957 142.611 110.356 142.611 112.066C142.611 114.242 142.144 116.107 141.211 117.661C140.279 119.216 139.191 120.459 137.637 121.391C136.237 122.324 134.528 122.946 132.818 123.412C130.953 123.879 129.243 124.034 127.378 124.034C124.425 124.034 121.628 123.568 118.985 122.635C116.187 121.703 113.855 120.304 112.146 118.594L118.674 111.755C119.807 112.894 121.12 113.84 122.56 114.553C124.114 115.33 125.669 115.641 127.378 115.641C128.311 115.641 129.243 115.485 130.176 115.019C131.109 114.553 131.575 113.776 131.575 112.688C131.575 111.6 130.953 110.822 129.865 110.201C128.777 109.734 126.912 109.113 124.581 108.646C123.337 108.336 122.094 108.025 120.851 107.558C119.607 107.092 118.519 106.47 117.586 105.693C116.654 104.916 115.876 103.828 115.255 102.74C114.633 101.497 114.322 100.098 114.322 98.543C114.322 96.367 114.788 94.658 115.721 93.103C116.654 91.549 117.741 90.461 119.141 89.528C120.539 88.596 122.094 87.818 123.803 87.508C125.513 87.041 127.223 86.886 128.933 86.886C131.575 86.886 134.217 87.352 136.704 88.129C139.191 88.907 141.367 90.15 143.077 91.859L136.549 98.233ZM0.391137 181.233V131.028H34.1201V141.287H12.0481V150.768H32.8761V160.405H12.0481V170.819H35.3631V181.233H0.391137ZM65.9831 181.233V161.959C65.9831 161.027 65.8281 160.094 65.6731 159.162C65.5326 158.35 65.2703 157.564 64.8951 156.83C64.5442 156.168 64.0029 155.627 63.3411 155.276C62.7191 154.809 61.7861 154.654 60.6981 154.654C59.6101 154.654 58.6781 154.809 57.9011 155.276C57.1231 155.742 56.5011 156.208 55.8801 156.986C55.4141 157.763 54.9471 158.54 54.6361 159.472C54.3305 160.373 54.1732 161.318 54.1701 162.27V181.388H42.5131V146.105H53.7031V150.924H53.8591C54.3261 150.147 54.7921 149.369 55.5691 148.748C56.1911 147.97 57.1231 147.348 57.9011 146.882C58.8331 146.416 59.7661 145.95 60.8541 145.639C61.9661 145.321 63.1177 145.164 64.2741 145.173C66.6041 145.173 68.6251 145.639 70.3351 146.416C72.0451 147.193 73.2881 148.436 74.3761 149.68C75.4641 151.08 76.0861 152.633 76.5521 154.343C77.0191 156.053 77.1741 157.763 77.1741 159.628V181.388H65.9831V181.233ZM107.639 157.296C106.932 156.421 106.026 155.729 104.996 155.276C103.908 154.809 102.665 154.499 101.576 154.499C100.333 154.499 99.2461 154.809 98.3131 155.276C97.3801 155.742 96.4471 156.364 95.8261 157.296C95.2041 158.229 94.5821 159.006 94.1161 160.094C93.6501 161.182 93.4941 162.27 93.4941 163.514C93.4941 164.757 93.6501 165.845 94.1161 166.934C94.4261 168.021 95.0491 168.954 95.8261 169.731C96.6031 170.508 97.3801 171.285 98.4681 171.751C99.5561 172.218 100.644 172.529 101.888 172.529C103.131 172.529 104.219 172.373 105.462 171.907C106.55 171.441 107.483 170.819 108.26 169.887L114.633 177.813C113.234 179.213 111.213 180.3 109.037 181.077C106.706 181.854 104.219 182.321 101.732 182.321C99.0919 182.325 96.4683 181.905 93.9611 181.077C91.4741 180.3 89.4531 179.057 87.5881 177.347C85.8781 175.793 84.4791 173.772 83.3911 171.441C82.3031 169.109 81.8371 166.467 81.8371 163.514C81.8371 160.56 82.3031 158.074 83.3911 155.742C84.4791 153.411 85.8781 151.39 87.5881 149.836C89.2981 148.281 91.4741 146.882 93.9611 146.106C96.4471 145.173 98.9341 144.862 101.732 144.862C102.976 144.862 104.219 145.017 105.462 145.172C106.706 145.484 107.949 145.794 109.037 146.105C110.125 146.572 111.213 147.038 112.301 147.66C113.234 148.281 114.167 148.903 114.788 149.68L107.639 157.296ZM141.523 155.586C141.056 155.431 140.434 155.276 139.968 155.276H138.569C137.015 155.276 135.772 155.586 134.684 156.053C133.596 156.675 132.818 157.296 132.197 158.073C131.575 158.851 131.109 159.783 130.797 160.716C130.487 161.648 130.331 162.426 130.331 163.203V181.233H118.674V145.95H129.865V151.08H130.021C130.953 149.214 132.197 147.815 133.906 146.727C135.616 145.639 137.481 145.017 139.657 145.017H141.057C141.523 145.017 141.833 145.173 142.144 145.173L141.523 155.587V155.586ZM168.878 186.517C168.101 188.383 167.324 189.937 166.547 191.491C165.614 192.891 164.682 194.134 163.438 195.221C162.195 196.31 160.796 196.931 159.242 197.553C157.687 198.019 155.667 198.33 153.491 198.33C152.403 198.33 151.315 198.33 150.071 198.175C148.983 198.019 147.895 197.864 147.118 197.553L148.361 187.761L150.227 188.227C150.848 188.383 151.47 188.383 152.092 188.383C153.957 188.383 155.2 187.916 155.978 187.139C156.755 186.362 157.532 185.119 157.998 183.564L159.086 180.611L144.32 145.95H157.221L165.148 168.643H165.303L172.298 145.95H184.577L168.878 186.517ZM227.01 163.514C227.01 166 226.699 168.332 225.922 170.664C225.144 172.994 224.056 174.86 222.658 176.725C221.258 178.435 219.394 179.834 217.373 180.922C215.353 182.01 212.865 182.476 210.223 182.476C208.047 182.476 206.026 182.01 204.006 181.233C202.141 180.3 200.586 179.213 199.498 177.658H199.343V198.641H187.686V146.416H198.721V150.768H198.877C199.965 149.369 201.519 148.126 203.384 147.038C205.249 145.95 207.581 145.484 210.224 145.484C212.71 145.484 215.041 145.95 217.217 147.038C219.238 147.97 221.103 149.369 222.502 151.079C223.901 152.789 224.989 154.809 225.766 156.985C226.543 158.695 227.01 161.027 227.01 163.514ZM215.663 163.514C215.663 162.426 215.508 161.338 215.197 160.25C214.886 159.162 214.264 158.229 213.643 157.452C212.936 156.577 212.03 155.885 211 155.432C209.912 154.965 208.824 154.654 207.425 154.654C206.026 154.654 204.938 154.964 203.85 155.431C202.762 155.897 201.985 156.675 201.208 157.451C200.431 158.229 199.965 159.317 199.498 160.405C199.032 161.493 198.877 162.581 198.877 163.669C198.877 164.757 199.032 165.845 199.498 166.933C199.965 168.021 200.431 168.953 201.208 169.886C201.985 170.663 202.762 171.441 203.85 171.906C204.938 172.373 206.026 172.684 207.425 172.684C208.825 172.684 210.068 172.374 211 171.907C212.088 171.441 212.865 170.663 213.643 169.887C214.264 169.109 214.886 168.021 215.197 166.933C215.507 165.69 215.663 164.602 215.663 163.513V163.514ZM245.506 154.654V168.177C245.506 169.887 245.816 171.13 246.439 171.907C247.06 172.684 248.149 173.15 249.858 173.15C250.48 173.15 251.101 173.15 251.723 172.995C252.345 172.839 252.967 172.684 253.278 172.529L253.433 181.077C252.656 181.388 251.568 181.544 250.324 181.854C249.081 182.01 247.837 182.165 246.594 182.165C244.263 182.165 242.242 181.855 240.688 181.233C239.133 180.611 237.734 179.833 236.802 178.746C235.869 177.658 235.092 176.259 234.782 174.705C234.47 173.15 234.159 171.441 234.159 169.575V154.654H228.564V145.95H234.159V136.624H245.506V145.95H253.744V154.654H245.506Z" fill="#003A70"/>
</g>
<defs>
<clipPath id="clip0_65_84">
<rect width="256" height="199" fill="white"/>
</clipPath>
</defs>
</svg>
